<svg width="55" height="55" viewBox="0 0 55 55" fill="none" xmlns="http://www.w3.org/2000/svg">
<g clip-path="url(#clip0_306_4114)">
<path d="M44 0H11C4.92487 0 0 4.92487 0 11V44C0 50.0751 4.92487 55 11 55H44C50.0751 55 55 50.0751 55 44V11C55 4.92487 50.0751 0 44 0Z" fill="white"/>
<path d="M10.967 36.2999V20.1299H15.356L19.745 30.1784H20.3225L24.7115 20.1299H28.985V36.2999H26.3285V24.9809L26.5595 22.7864H26.3285L22.055 32.6039H17.897L13.6235 22.7864H13.3925L13.6235 24.9809V36.2999H10.967ZM31.4087 31.4489H34.1807C34.2885 31.9879 34.5118 32.473 34.8506 32.9042C35.5898 33.859 36.714 34.3364 38.2232 34.3364C39.4398 34.3364 40.3407 34.1208 40.9259 33.6896C41.5111 33.243 41.8037 32.6501 41.8037 31.9109C41.8037 31.3257 41.5342 30.856 40.9952 30.5018C40.4716 30.1476 39.717 29.8396 38.7314 29.5778C36.8064 29.085 35.5128 28.6769 34.8506 28.3535C33.018 27.5065 32.1017 26.2283 32.1017 24.5189C32.1017 23.3639 32.5406 22.3321 33.4184 21.4235C34.3116 20.5149 35.4897 19.9682 36.9527 19.7834V17.5889H39.6092V19.7834C41.4264 20.1222 42.7662 20.9846 43.6286 22.3706C44.029 23.002 44.3062 23.6796 44.4602 24.4034H41.6882C41.5804 23.9722 41.3879 23.5872 41.1107 23.2484C40.4639 22.4784 39.4629 22.0934 38.1077 22.0934C37.0605 22.0934 36.2597 22.309 35.7053 22.7402C35.1509 23.1714 34.8737 23.7258 34.8737 24.4034C34.8737 25.4198 35.8978 26.2052 37.946 26.7596C38.1154 26.8058 38.4388 26.8982 38.9162 27.0368C39.3936 27.16 39.7324 27.2601 39.9326 27.3371C40.1482 27.3987 40.4716 27.5065 40.9028 27.6605C41.3494 27.7991 41.6805 27.93 41.8961 28.0532C42.1117 28.1764 42.3889 28.3381 42.7277 28.5383C43.0665 28.7231 43.3206 28.9233 43.49 29.1389C43.6748 29.3391 43.8596 29.5701 44.0444 29.8319C44.2446 30.0937 44.3832 30.394 44.4602 30.7328C44.5372 31.0562 44.5757 31.4104 44.5757 31.7954C44.5757 33.089 44.1137 34.167 43.1897 35.0294C42.2811 35.8764 41.0876 36.4154 39.6092 36.6464V38.8409H36.9527V36.6464C34.8121 36.323 33.2644 35.3682 32.3096 33.782C31.863 33.0582 31.5627 32.2805 31.4087 31.4489Z" fill="black"/>
</g>
<defs>
<clipPath id="clip0_306_4114">
<rect width="55" height="55" fill="white"/>
</clipPath>
</defs>
</svg>
