<svg width="13" height="9" viewBox="0 0 13 9" fill="none" xmlns="http://www.w3.org/2000/svg">
<path d="M8.74405 8.21429L10.3226 5.95714L8.45 3.5C9.50238 3.31429 9.98214 2.85714 10.2607 2.05714C10.2762 1.77143 10.2298 1.6 9.84286 1.58571C9.39405 1.74286 9.61071 2.22857 7.86191 2.72857L7.72262 2.5L8.97619 0.7H7.87738L7.19643 1.87143H6.91786L7.50595 0.0285714L8.0631 0.314286H11.8393L10.3226 2.52857L12.9536 5.97143L10.7869 9H2.22857L1.65595 8.2H8.74405V8.21429ZM4.24048 4.82857C4.64286 4.55714 5.16905 4.34286 5.63333 4.18571C5.50952 3.92857 5.32381 3.74286 5.27738 3.44286C5.2619 3.22857 5.27738 3.01429 5.44762 2.84286C5.60238 2.65714 5.81905 2.71429 6.06667 2.78571C6.57738 3.01429 7.18095 2.9 7.75357 2.85714V2.84286L7.89286 3.05714C7.52143 3.12857 7.11905 3.17143 6.71667 3.14286C6.65476 3.15714 6.62381 3.18571 6.68571 3.22857C7.07262 3.34286 7.59881 3.37143 8.10952 3.35714L8.24881 3.57143C7.33571 3.64286 6.48452 3.51429 5.86548 3.08571C5.77262 3.05714 5.71071 3.07143 5.67976 3.15714C5.57143 3.41429 5.71071 3.82857 5.92738 4.15714C6.46905 4.12857 6.93333 4.15714 7.44405 4.24286C8.09405 4.3 8.10952 4.88571 7.33571 4.84286C6.71667 4.81429 6.22143 4.62857 5.81905 4.38571C5.33929 4.62857 4.98333 4.85714 4.67381 5.27143C4.27143 5.84286 4.98333 6.17143 5.35476 6.35714C5.29286 6.45714 5.24643 6.54286 5.18452 6.64286C3.25 6.12857 3.54405 5.3 4.24048 4.82857ZM5.98929 6.81429C5.74167 7.11429 5.7881 7.3 4.75119 7.74286H4.41071C4.73571 7.44286 4.96786 7.04286 5.2 6.62857C5.35476 6.52857 5.24643 6.45714 5.40119 6.35714C5.38571 6.35714 5.38571 6.34286 5.37024 6.34286C5.61786 5.94286 5.91191 5.54286 6.32976 5.25714C7.18095 4.75714 8.27976 4.82857 8.79048 5.05714C9.76548 5.5 9.08452 6.38571 8.80595 6.45714C7.92381 6.9 6.79405 6.82857 5.98929 6.81429ZM1.14524 0.328571H4.92143L5.47857 0.0428571L6.06667 1.87143H5.80357L5.07619 0.7H4.02381L4.13214 0.842857H1.47024L1.14524 0.328571ZM6.15952 6.58571C6.93333 6.68571 7.75357 6.5 8.3881 5.97143C8.7131 5.62857 8.57381 5.04286 7.84643 5.1C6.65476 5.22857 6.31429 6.02857 6.15952 6.58571ZM12.1952 1.12857C12.644 1.12857 13 1.45714 13 1.87143C13 2.27143 12.6286 2.61429 12.1952 2.61429C11.7464 2.61429 11.3905 2.28571 11.3905 1.87143C11.375 1.47143 11.7464 1.12857 12.1952 1.12857ZM8.0631 2.97143C8.58929 2.81429 9.23929 2.58571 9.70357 2.1C9.82738 2 9.99762 1.98571 9.82738 2.35714C9.45595 2.97143 8.75952 3.12857 8.24881 3.21429L8.0631 2.97143ZM11.5143 1.87143C11.5143 2.2 11.8083 2.48571 12.1798 2.48571C12.5512 2.48571 12.8452 2.21429 12.8452 1.87143C12.8452 1.52857 12.5357 1.25714 12.1798 1.25714C11.8238 1.25714 11.5143 1.52857 11.5143 1.87143ZM3.60595 4.72857L3.25 5.2H0.557143L0.897619 4.72857H3.60595ZM4.30238 3.84286L3.93095 4.31429H1.2381L1.57857 3.84286H4.30238ZM1.73333 1.24286H4.42619L4.79762 1.71429H2.07381L1.73333 1.24286ZM2.63095 2.47143L2.35238 2.11429H5.04524L5.32381 2.47143L5.27738 2.55714H2.58452L2.63095 2.47143ZM0.975 7.35714H3.66786L4.00833 7.78571H1.3L0.975 7.35714ZM2.95595 5.61429L2.67738 5.95714L2.77024 6.04286H0.0619048L0 5.95714L0.247619 5.61429H2.95595ZM0.417857 6.5H3.11071L3.42024 6.91429H0.711905L0.417857 6.5ZM6.80952 0L6.60833 1.87143H6.34524L6.15952 0H6.80952ZM12.4738 2.28571L12.0714 1.9H12.025V2.28571H11.9167V1.44286H12.2262C12.3345 1.44286 12.4119 1.45714 12.4738 1.5C12.5357 1.54286 12.5667 1.6 12.5667 1.67143C12.5667 1.72857 12.5357 1.78571 12.4893 1.82857C12.4274 1.87143 12.319 1.9 12.1952 1.9L12.6131 2.28571H12.4738ZM6.1131 4.35714C6.5 4.51429 6.8869 4.65714 7.28929 4.68571C7.81548 4.71429 7.70714 4.41429 7.4131 4.38571C7.27381 4.37143 6.57738 4.27143 6.1131 4.35714ZM12.4429 1.68571C12.4429 1.62857 12.4119 1.57143 12.35 1.55714C12.3036 1.54286 12.2417 1.52857 12.1643 1.52857H12.025V1.84286H12.1488C12.2726 1.84286 12.35 1.82857 12.3964 1.78571C12.4274 1.75714 12.4429 1.72857 12.4429 1.68571ZM1.91905 3.44286H4.6119L4.98333 2.97143H2.275L1.91905 3.44286Z" fill="white"/>
</svg>
