<svg width="14" height="15" viewBox="0 0 14 15" fill="none" xmlns="http://www.w3.org/2000/svg">
<path d="M11.6887 5.70667C11.6887 5.70667 11.3041 10.4773 11.0809 12.4868C10.9747 13.4466 10.3818 14.009 9.41068 14.0267C7.56264 14.06 5.71247 14.0622 3.86514 14.0232C2.93084 14.0041 2.34789 13.4346 2.24376 12.4918C2.01922 10.4645 1.63672 5.70667 1.63672 5.70667" stroke="#E72E22" stroke-linecap="round" stroke-linejoin="round"/>
<path d="M12.6684 3.41981H0.656494" stroke="#E72E22" stroke-linecap="round" stroke-linejoin="round"/>
<path d="M10.3539 3.4198C9.79786 3.4198 9.31903 3.02668 9.20995 2.48197L9.03782 1.62063C8.93157 1.22326 8.57174 0.948425 8.16161 0.948425H5.16324C4.75311 0.948425 4.39328 1.22326 4.28703 1.62063L4.11491 2.48197C4.00582 3.02668 3.52699 3.4198 2.97095 3.4198" stroke="#E72E22" stroke-linecap="round" stroke-linejoin="round"/>
</svg>
