<svg width="14" height="11" viewBox="0 0 14 11" fill="none" xmlns="http://www.w3.org/2000/svg">
<path d="M6.38886 8.63864H2.00518C1.45037 8.63864 1 8.86266 1 9.13864C1 9.41425 1.45037 9.63864 2.00518 9.63864H6.38886C6.94367 9.63864 7.39404 9.41425 7.39404 9.13864C7.39404 8.86266 6.94367 8.63864 6.38886 8.63864Z" fill="#130F26"/>
<path d="M13.3328 2.76544C13.3328 2.48973 12.8824 2.26562 12.3283 2.26562H7.94463C7.38982 2.26562 6.93945 2.48973 6.93945 2.76544C6.93945 3.04152 7.38982 3.26562 7.94463 3.26562H12.3283C12.8824 3.26562 13.3328 3.04152 13.3328 2.76544Z" fill="#130F26"/>
<path d="M5 2.99968C5 4.10451 4.10501 5 3 5C1.89564 5 1 4.10451 1 2.99968C1 1.89549 1.89564 1 3 1C4.10501 1 5 1.89549 5 2.99968Z" stroke="black" stroke-width="0.8"/>
<path d="M13 8.00032C13 9.10451 12.105 10 11 10C9.89564 10 9 9.10451 9 8.00032C9 6.89549 9.89564 6 11 6C12.105 6 13 6.89549 13 8.00032Z" stroke="black" stroke-width="0.8"/>
</svg>
