<svg width="17" height="17" viewBox="0 0 17 17" fill="none" xmlns="http://www.w3.org/2000/svg">
<path d="M13.6884 6.70667C13.6884 6.70667 13.3038 11.4773 13.0807 13.4868C12.9744 14.4466 12.3816 15.009 11.4104 15.0267C9.56239 15.06 7.71222 15.0622 5.86489 15.0232C4.9306 15.0041 4.34764 14.4346 4.24352 13.4918C4.01897 11.4645 3.63647 6.70667 3.63647 6.70667" stroke="#E72E22" stroke-linecap="round" stroke-linejoin="round"/>
<path d="M14.6683 4.41981H2.65637" stroke="#E72E22" stroke-linecap="round" stroke-linejoin="round"/>
<path d="M12.3538 4.4198C11.7977 4.4198 11.3189 4.02668 11.2098 3.48197L11.0377 2.62063C10.9315 2.22326 10.5716 1.94843 10.1615 1.94843H7.16312C6.75299 1.94843 6.39316 2.22326 6.28691 2.62063L6.11478 3.48197C6.0057 4.02668 5.52687 4.4198 4.97083 4.4198" stroke="#E72E22" stroke-linecap="round" stroke-linejoin="round"/>
</svg>
