<svg width="151" height="33" viewBox="0 0 151 33" fill="none" xmlns="http://www.w3.org/2000/svg">
<path d="M39.7369 0.67347H9.27197V32.3265H39.7369V0.67347Z" fill="white"/>
<path d="M25.1667 2.02041V12.2579C25.1667 13.4031 26.483 14.0259 27.3445 13.2882L31.0887 10.082C31.3275 9.87744 31.6296 9.76531 31.9418 9.76531H32.5655C32.9168 9.76531 33.2537 9.90721 33.5021 10.1598L38.0244 14.7585C38.2728 15.0112 38.4124 15.3538 38.4124 15.711V16.976C38.4124 17.3191 38.2836 17.6493 38.0523 17.8992L33.5064 22.8109C33.256 23.0813 32.907 23.2347 32.5418 23.2347H32.007C31.6558 23.2347 31.3189 23.0928 31.0705 22.8402L28.2038 19.9251C27.9554 19.6725 27.6185 19.5306 27.2672 19.5306H26.8224C26.4055 19.5306 26.0129 19.7302 25.7628 20.0694L25.4317 20.5184C25.2597 20.7515 25.1667 21.0351 25.1667 21.3266V30.9796C25.1667 31.7235 25.7598 32.3265 26.4913 32.3265H39.1883C39.5396 32.3265 39.8765 32.1846 40.1249 31.932L46.634 25.3129C46.8825 25.0603 47.022 24.7177 47.022 24.3605V23.8153C47.022 23.4447 46.8719 23.0905 46.6069 22.8361L41.4766 17.9088C41.2116 17.6544 41.0615 17.3002 41.0615 16.9296V16.3844C41.0615 16.0272 41.201 15.6846 41.4494 15.432L46.634 10.1598C46.8825 9.90721 47.022 9.56461 47.022 9.20741V8.00398C47.022 7.62448 46.8646 7.26263 46.5884 7.00738L40.1158 1.02375C39.872 0.798358 39.5543 0.67347 39.2248 0.67347H26.4913C25.7598 0.67347 25.1667 1.27651 25.1667 2.02041Z" fill="#2273EC" stroke="#2273EC"/>
<path d="M22.5176 2.02041V12.2579C22.5176 13.4031 21.2013 14.0259 20.3398 13.2882L16.5957 10.082C16.3569 9.87744 16.0547 9.76531 15.7426 9.76531H15.1189C14.7676 9.76531 14.4307 9.90721 14.1823 10.1598L9.65997 14.7585C9.41154 15.0112 9.272 15.3538 9.272 15.711V16.976C9.272 17.3191 9.40075 17.6493 9.63202 17.8992L14.178 22.8109C14.4283 23.0813 14.7773 23.2347 15.1425 23.2347H15.6773C16.0286 23.2347 16.3655 23.0928 16.6139 22.8402L19.4805 19.9251C19.729 19.6725 20.0659 19.5306 20.4171 19.5306H20.8619C21.2788 19.5306 21.6714 19.7302 21.9216 20.0694L22.2527 20.5184C22.4246 20.7515 22.5176 21.0351 22.5176 21.3266V30.9796C22.5176 31.7235 21.9246 32.3265 21.1931 32.3265H8.49607C8.1448 32.3265 7.8079 32.1846 7.55948 31.932L1.0503 25.3129C0.801903 25.0603 0.662354 24.7177 0.662354 24.3605V23.8153C0.662354 23.4447 0.812499 23.0905 1.07744 22.8361L6.2078 17.9088C6.47273 17.6544 6.62288 17.3002 6.62288 16.9296V16.3844C6.62288 16.0272 6.48333 15.6846 6.23493 15.432L1.0503 10.1598C0.801903 9.90721 0.662354 9.56461 0.662354 9.20741V8.00398C0.662354 7.62448 0.819784 7.26263 1.09592 7.00738L7.56855 1.02375C7.81234 0.798358 8.13003 0.67347 8.45952 0.67347H21.1931C21.9246 0.67347 22.5176 1.27651 22.5176 2.02041Z" fill="#2273EC" stroke="#2273EC"/>
<path d="M13.5071 17.5102V15.8265H13.772V16.5H14.1031L14.633 15.8265H14.9475L14.3349 16.6179L14.9972 17.5102H14.6661L14.1031 16.7526H13.772V17.5102H13.5071ZM15.2469 18.15V15.8265H15.5118V16.0959H15.5151L15.5482 16.0454C15.5857 15.987 15.6531 15.9309 15.7502 15.877C15.8473 15.8209 15.9665 15.7929 16.1079 15.7929C16.3286 15.7929 16.5162 15.877 16.6708 16.0454C16.8253 16.2116 16.9026 16.4192 16.9026 16.6684C16.9026 16.9176 16.8253 17.1263 16.6708 17.2947C16.5162 17.4608 16.3286 17.5439 16.1079 17.5439C15.9665 17.5439 15.8463 17.5169 15.7469 17.4631C15.6498 17.407 15.5835 17.3486 15.5482 17.288L15.5151 17.2408H15.5118V18.15H15.2469ZM15.6708 16.2205C15.5648 16.3372 15.5118 16.4865 15.5118 16.6684C15.5118 16.8502 15.5648 16.9995 15.6708 17.1162C15.7789 17.2329 15.9135 17.2913 16.0747 17.2913C16.2359 17.2913 16.3695 17.2329 16.4754 17.1162C16.5836 16.9995 16.6377 16.8502 16.6377 16.6684C16.6377 16.4865 16.5836 16.3372 16.4754 16.2205C16.3695 16.1038 16.2359 16.0454 16.0747 16.0454C15.9135 16.0454 15.7789 16.1038 15.6708 16.2205ZM17.4104 17.2947C17.2492 17.1285 17.1686 16.9198 17.1686 16.6684C17.1686 16.417 17.2492 16.2082 17.4104 16.042C17.5716 15.8759 17.7724 15.7929 18.013 15.7929C18.2537 15.7929 18.4546 15.8748 18.6157 16.0387C18.7769 16.2025 18.8574 16.4069 18.8574 16.6515V16.7526H17.4335C17.4512 16.9097 17.5141 17.0388 17.6223 17.1398C17.7305 17.2408 17.8607 17.2913 18.013 17.2913C18.1764 17.2913 18.3166 17.2408 18.4336 17.1398C18.4866 17.0949 18.5286 17.0444 18.5594 16.9883H18.8243C18.7846 17.0938 18.7283 17.1869 18.6555 17.2678C18.4833 17.4518 18.2691 17.5439 18.013 17.5439C17.7724 17.5439 17.5716 17.4608 17.4104 17.2947ZM17.4402 16.5168H18.576C18.5561 16.3844 18.4954 16.2732 18.3939 16.1835C18.2923 16.0914 18.1654 16.0454 18.013 16.0454C17.8607 16.0454 17.7327 16.0914 17.6289 16.1835C17.5252 16.2732 17.4623 16.3844 17.4402 16.5168ZM19.006 17.8974V17.2577H19.1881L19.5689 15.8265H20.2643L20.6451 17.2577H20.8273V17.8974H20.5624V17.5102H19.2709V17.8974H19.006ZM19.453 17.2577H20.3802L20.0656 16.0791H19.7676L19.453 17.2577ZM21.0742 17.5102V15.8265H21.3391V17.0893L21.3358 17.123H21.3424L22.2332 15.8265H22.5312V17.5102H22.2663V16.2474L22.2696 16.2138H22.263L21.3722 17.5102H21.0742ZM22.7798 16.0791V15.8265H24.2037V16.0791H23.6242V17.5102H23.3593V16.0791H22.7798ZM24.4203 16.7189V16.4495H25.6124V16.7189H24.4203ZM26.0445 17.5102V15.8265H26.3094V17.2577H27.1704V15.8265H27.4353V17.2577H27.6671V17.8974H27.4022V17.5102H26.0445ZM28.0916 17.2947C27.9304 17.1285 27.8499 16.9198 27.8499 16.6684C27.8499 16.417 27.9304 16.2082 28.0916 16.042C28.2528 15.8759 28.4536 15.7929 28.6943 15.7929C28.9349 15.7929 29.1358 15.8748 29.297 16.0387C29.4581 16.2025 29.5387 16.4069 29.5387 16.6515V16.7526H28.1148C28.1324 16.9097 28.1953 17.0388 28.3036 17.1398C28.4117 17.2408 28.542 17.2913 28.6943 17.2913C28.8576 17.2913 28.9978 17.2408 29.1149 17.1398C29.1678 17.0949 29.2098 17.0444 29.2407 16.9883H29.5056C29.4659 17.0938 29.4096 17.1869 29.3367 17.2678C29.1645 17.4518 28.9503 17.5439 28.6943 17.5439C28.4536 17.5439 28.2528 17.4608 28.0916 17.2947ZM28.1214 16.5168H29.2572C29.2374 16.3844 29.1766 16.2732 29.0751 16.1835C28.9735 16.0914 28.8466 16.0454 28.6943 16.0454C28.542 16.0454 28.4139 16.0914 28.3102 16.1835C28.2064 16.2732 28.1435 16.3844 28.1214 16.5168ZM29.9024 17.5102V15.8265H30.1673V16.5168H31.0945V15.8265H31.3595V17.5102H31.0945V16.7694H30.1673V17.5102H29.9024ZM31.6081 16.0791V15.8265H33.032V16.0791H32.4525V17.5102H32.1876V16.0791H31.6081ZM33.2817 18.15V15.8265H33.5466V16.0959H33.5499L33.5831 16.0454C33.6206 15.987 33.688 15.9309 33.7851 15.877C33.8822 15.8209 34.0014 15.7929 34.1427 15.7929C34.3635 15.7929 34.5511 15.877 34.7056 16.0454C34.8602 16.2116 34.9374 16.4192 34.9374 16.6684C34.9374 16.9176 34.8602 17.1263 34.7056 17.2947C34.5511 17.4608 34.3635 17.5439 34.1427 17.5439C34.0014 17.5439 33.8811 17.5169 33.7817 17.4631C33.6847 17.407 33.6184 17.3486 33.5831 17.288L33.5499 17.2408H33.5466V18.15H33.2817ZM33.7056 16.2205C33.5996 16.3372 33.5466 16.4865 33.5466 16.6684C33.5466 16.8502 33.5996 16.9995 33.7056 17.1162C33.8138 17.2329 33.9484 17.2913 34.1096 17.2913C34.2708 17.2913 34.4043 17.2329 34.5103 17.1162C34.6185 16.9995 34.6725 16.8502 34.6725 16.6684C34.6725 16.4865 34.6185 16.3372 34.5103 16.2205C34.4043 16.1038 34.2708 16.0454 34.1096 16.0454C33.9484 16.0454 33.8138 16.1038 33.7056 16.2205Z" fill="black"/>
<path d="M53.1812 27.2359L54.6514 21.5788H56.6383L58.1085 27.2359H57.5919L57.1151 25.3771H54.1746L53.6977 27.2359H53.1812ZM54.2938 24.8922H56.9959L56.2409 22.0636H55.0488L54.2938 24.8922ZM58.9424 27.2359V23.1951H61.6048V23.6396H59.4192V27.2359H58.9424ZM62.6125 26.7187C62.231 26.32 62.0403 25.8189 62.0403 25.2155C62.0403 24.6121 62.231 24.111 62.6125 23.7123C62.994 23.3136 63.4655 23.1143 64.0271 23.1143C64.5834 23.1143 65.0523 23.3136 65.4338 23.7123C65.8206 24.1056 66.014 24.5932 66.014 25.1751V25.3771H62.5171C62.5383 25.8028 62.692 26.1583 62.9781 26.4439C63.2642 26.7294 63.6139 26.8722 64.0271 26.8722C64.4828 26.8722 64.8563 26.7241 65.1477 26.4277C65.2855 26.2984 65.3888 26.1503 65.4577 25.9832H65.9345C65.8391 26.2365 65.704 26.4601 65.5292 26.654C65.1371 27.0958 64.6364 27.3167 64.0271 27.3167C63.4655 27.3167 62.994 27.1174 62.6125 26.7187ZM62.5171 24.9326H65.4974C65.455 24.5393 65.2961 24.2134 65.0205 23.9548C64.7503 23.6908 64.4192 23.5588 64.0271 23.5588C63.6351 23.5588 63.3013 23.6881 63.0258 23.9467C62.7502 24.2053 62.5807 24.5339 62.5171 24.9326ZM67.0063 27.2359V23.1951H67.4831V24.973H69.8673V23.1951H70.3442V27.2359H69.8673V25.4175H67.4831V27.2359H67.0063ZM71.0203 23.6396V23.1951H74.3582V23.6396H72.9277V27.2359H72.4509V23.6396H71.0203ZM75.3172 26.7187C74.941 26.3146 74.753 25.8135 74.753 25.2155C74.753 24.6174 74.941 24.1191 75.3172 23.7204C75.6987 23.3163 76.1596 23.1143 76.7001 23.1143C77.3306 23.1143 77.8312 23.3513 78.2021 23.8254C78.3664 24.0302 78.4882 24.2645 78.5677 24.5285H78.0909C78.0167 24.34 77.9187 24.1783 77.7968 24.0436C77.5213 23.7204 77.1557 23.5588 76.7001 23.5588C76.2974 23.5588 75.9504 23.7177 75.659 24.0356C75.3729 24.3481 75.2298 24.7414 75.2298 25.2155C75.2298 25.6896 75.3729 26.0856 75.659 26.4035C75.9504 26.716 76.2974 26.8722 76.7001 26.8722C77.161 26.8722 77.5372 26.6971 77.8286 26.3469C77.9663 26.1853 78.067 26.0102 78.1306 25.8216H78.6074C78.528 26.0964 78.4035 26.3469 78.2339 26.5732C77.8312 27.0689 77.32 27.3167 76.7001 27.3167C76.1596 27.3167 75.6987 27.1174 75.3172 26.7187ZM78.9677 23.6396V23.1951H82.3056V23.6396H80.8751V27.2359H80.3982V23.6396H78.9677ZM82.9785 27.2359V23.1951H84.8461C85.2223 23.1951 85.5137 23.2921 85.7203 23.486C85.9323 23.68 86.0382 23.9332 86.0382 24.2457C86.0382 24.6552 85.8395 24.9353 85.4422 25.0862V25.0943C85.4581 25.0943 85.4899 25.1023 85.5375 25.1185C85.5852 25.1347 85.6462 25.167 85.7203 25.2155C85.7998 25.264 85.874 25.3232 85.9429 25.3933C86.0117 25.4633 86.07 25.5603 86.1177 25.6842C86.1707 25.8081 86.1972 25.9482 86.1972 26.1045C86.1972 26.4385 86.078 26.7106 85.8395 26.9207C85.6064 27.1308 85.2779 27.2359 84.8541 27.2359H82.9785ZM83.4553 24.8922H84.8461C85.0792 24.8922 85.2567 24.8383 85.3786 24.7306C85.5005 24.6228 85.5614 24.4747 85.5614 24.2861C85.5614 23.8551 85.323 23.6396 84.8461 23.6396H83.4553V24.8922ZM83.4553 26.7914H84.8461C85.4289 26.7914 85.7203 26.549 85.7203 26.0641C85.7203 25.5792 85.4289 25.3367 84.8461 25.3367H83.4553V26.7914ZM87.4946 26.7187C87.1078 26.32 86.9144 25.8189 86.9144 25.2155C86.9144 24.6121 87.1078 24.111 87.4946 23.7123C87.8813 23.3136 88.3635 23.1143 88.941 23.1143C89.5185 23.1143 90.0007 23.3136 90.3874 23.7123C90.7742 24.111 90.9676 24.6121 90.9676 25.2155C90.9676 25.8189 90.7742 26.32 90.3874 26.7187C90.0007 27.1174 89.5185 27.3167 88.941 27.3167C88.3635 27.3167 87.8813 27.1174 87.4946 26.7187ZM87.8363 24.0275C87.5396 24.34 87.3913 24.736 87.3913 25.2155C87.3913 25.695 87.5396 26.091 87.8363 26.4035C88.133 26.716 88.5012 26.8722 88.941 26.8722C89.3808 26.8722 89.749 26.716 90.0457 26.4035C90.3424 26.091 90.4907 25.695 90.4907 25.2155C90.4907 24.736 90.3424 24.34 90.0457 24.0275C89.749 23.715 89.3808 23.5588 88.941 23.5588C88.5012 23.5588 88.133 23.715 87.8363 24.0275ZM94.1856 27.2359V23.1951H94.6624V24.973H97.0467V23.1951H97.5235V27.2359H97.0467V25.4175H94.6624V27.2359H94.1856ZM99.0898 26.7187C98.7083 26.32 98.5176 25.8189 98.5176 25.2155C98.5176 24.6121 98.7083 24.111 99.0898 23.7123C99.4713 23.3136 99.9428 23.1143 100.504 23.1143C101.061 23.1143 101.53 23.3136 101.911 23.7123C102.298 24.1056 102.491 24.5932 102.491 25.1751V25.3771H98.9944C99.0156 25.8028 99.1693 26.1583 99.4554 26.4439C99.7415 26.7294 100.091 26.8722 100.504 26.8722C100.96 26.8722 101.334 26.7241 101.625 26.4277C101.763 26.2984 101.866 26.1503 101.935 25.9832H102.412C102.316 26.2365 102.181 26.4601 102.006 26.654C101.614 27.0958 101.114 27.3167 100.504 27.3167C99.9428 27.3167 99.4713 27.1174 99.0898 26.7187ZM98.9944 24.9326H101.975C101.932 24.5393 101.773 24.2134 101.498 23.9548C101.228 23.6908 100.896 23.5588 100.504 23.5588C100.112 23.5588 99.7786 23.6881 99.5031 23.9467C99.2275 24.2053 99.058 24.5339 98.9944 24.9326ZM102.887 28.2057V26.7914H103.324L104.278 23.1951H105.788L106.742 26.7914H107.179V28.2057H106.742V27.2359H103.324V28.2057H102.887ZM103.801 26.7914H106.265L105.43 23.6396H104.636L103.801 26.7914ZM107.853 27.2359V23.1951H109.721C110.097 23.1951 110.388 23.2921 110.595 23.486C110.807 23.68 110.913 23.9332 110.913 24.2457C110.913 24.6552 110.714 24.9353 110.317 25.0862V25.0943C110.333 25.0943 110.364 25.1023 110.412 25.1185C110.46 25.1347 110.521 25.167 110.595 25.2155C110.674 25.264 110.749 25.3232 110.817 25.3933C110.886 25.4633 110.945 25.5603 110.992 25.6842C111.045 25.8081 111.072 25.9482 111.072 26.1045C111.072 26.4385 110.953 26.7106 110.714 26.9207C110.481 27.1308 110.153 27.2359 109.729 27.2359H107.853ZM108.33 24.8922H109.721C109.954 24.8922 110.131 24.8383 110.253 24.7306C110.375 24.6228 110.436 24.4747 110.436 24.2861C110.436 23.8551 110.198 23.6396 109.721 23.6396H108.33V24.8922ZM108.33 26.7914H109.721C110.304 26.7914 110.595 26.549 110.595 26.0641C110.595 25.5792 110.304 25.3367 109.721 25.3367H108.33V26.7914ZM112.067 27.2359V23.1951H112.544V26.4681L112.536 26.549H112.544L114.849 23.1951H115.405V27.2359H114.928V23.9628L114.936 23.882H114.928L112.624 27.2359H112.067ZM116.081 27.2359L117.631 25.1347L116.2 23.1951H116.757L118.028 24.8922H118.823V23.1951H119.3V24.8922H120.095L121.366 23.1951H121.923L120.492 25.1347L122.042 27.2359H121.485L120.095 25.3367H119.3V27.2359H118.823V25.3367H118.028L116.638 27.2359H116.081ZM122.715 27.2359V23.1951H123.192V26.4681L123.184 26.549H123.192L125.497 23.1951H126.053V27.2359H125.576V23.9628L125.584 23.882H125.576L123.272 27.2359H122.715ZM127.325 27.2359V23.1951H128.041L129.352 25.7812H129.59L130.902 23.1951H131.617V27.2359H131.14V23.8416L131.148 23.7608H131.14L129.869 26.2661H129.074L127.802 23.7608H127.794L127.802 23.8416V27.2359H127.325ZM133.192 26.7187C132.805 26.32 132.612 25.8189 132.612 25.2155C132.612 24.6121 132.805 24.111 133.192 23.7123C133.579 23.3136 134.061 23.1143 134.638 23.1143C135.216 23.1143 135.698 23.3136 136.085 23.7123C136.472 24.111 136.665 24.6121 136.665 25.2155C136.665 25.8189 136.472 26.32 136.085 26.7187C135.698 27.1174 135.216 27.3167 134.638 27.3167C134.061 27.3167 133.579 27.1174 133.192 26.7187ZM133.534 24.0275C133.237 24.34 133.089 24.736 133.089 25.2155C133.089 25.695 133.237 26.091 133.534 26.4035C133.83 26.716 134.199 26.8722 134.638 26.8722C135.078 26.8722 135.446 26.716 135.743 26.4035C136.04 26.091 136.188 25.695 136.188 25.2155C136.188 24.736 136.04 24.34 135.743 24.0275C135.446 23.715 135.078 23.5588 134.638 23.5588C134.199 23.5588 133.83 23.715 133.534 24.0275ZM137.942 26.7187C137.566 26.3146 137.378 25.8135 137.378 25.2155C137.378 24.6174 137.566 24.1191 137.942 23.7204C138.323 23.3163 138.784 23.1143 139.325 23.1143C139.955 23.1143 140.456 23.3513 140.827 23.8254C140.991 24.0302 141.113 24.2645 141.192 24.5285H140.715C140.641 24.34 140.543 24.1783 140.421 24.0436C140.146 23.7204 139.78 23.5588 139.325 23.5588C138.922 23.5588 138.575 23.7177 138.284 24.0356C137.997 24.3481 137.854 24.7414 137.854 25.2155C137.854 25.6896 137.997 26.0856 138.284 26.4035C138.575 26.716 138.922 26.8722 139.325 26.8722C139.786 26.8722 140.162 26.6971 140.453 26.3469C140.591 26.1853 140.692 26.0102 140.755 25.8216H141.232C141.153 26.0964 141.028 26.3469 140.859 26.5732C140.456 27.0689 139.945 27.3167 139.325 27.3167C138.784 27.3167 138.323 27.1174 137.942 26.7187ZM141.592 23.6396V23.1951H144.93V23.6396H143.499V27.2359H143.022V23.6396H141.592ZM145.603 27.2359V23.1951H146.08V26.4681L146.072 26.549H146.08L148.385 23.1951H148.941V27.2359H148.464V23.9628L148.472 23.882H148.464L146.159 27.2359H145.603Z" fill="black"/>
<path d="M53.8865 15.7869V5.88691H55.9727V9.7762H57.3634L60.006 5.88691H62.3703L59.1715 10.6248L62.5789 15.7869H60.145L57.433 11.7562H55.9727V15.7869H53.8865ZM63.2683 18.4741V8.57406H65.2154V9.49334H65.285C65.4333 9.29534 65.6141 9.10677 65.8274 8.92763C66.3281 8.55048 66.889 8.36191 67.5103 8.36191C68.4374 8.36191 69.2117 8.71549 69.8329 9.42263C70.4634 10.1203 70.7786 11.0396 70.7786 12.1805C70.7786 13.3213 70.4634 14.2453 69.8329 14.9525C69.2117 15.6502 68.4374 15.9991 67.5103 15.9991C66.889 15.9991 66.3281 15.8105 65.8274 15.4333C65.6141 15.2542 65.4333 15.0656 65.285 14.8676H65.2154V18.4741H63.2683ZM65.7161 10.6248C65.3823 10.9925 65.2154 11.5111 65.2154 12.1805C65.2154 12.8499 65.3823 13.3732 65.7161 13.7503C66.0499 14.1181 66.4857 14.3019 67.0235 14.3019C67.5334 14.3019 67.9507 14.1133 68.2752 13.7362C68.5997 13.3591 68.762 12.8405 68.762 12.1805C68.762 11.5205 68.5997 11.0019 68.2752 10.6248C67.9507 10.2476 67.5334 10.0591 67.0235 10.0591C66.4857 10.0591 66.0499 10.2476 65.7161 10.6248ZM72.6423 14.8959C71.9098 14.1511 71.5435 13.2459 71.5435 12.1805C71.5435 11.1151 71.9098 10.2146 72.6423 9.4792C73.384 8.73434 74.2927 8.36191 75.3682 8.36191C76.4623 8.36191 77.3617 8.72963 78.0663 9.46506C78.771 10.2005 79.1233 11.1056 79.1233 12.1805V12.6048H73.5602C73.6344 13.0762 73.843 13.4769 74.186 13.8069C74.5291 14.1369 74.9232 14.3019 75.3682 14.3019C75.8596 14.3019 76.2815 14.1605 76.6338 13.8776C76.7729 13.7551 76.8842 13.6136 76.9676 13.4533H79.0538C78.8962 13.9342 78.6644 14.3585 78.3584 14.7262C77.6167 15.5748 76.6199 15.9991 75.3682 15.9991C74.2927 15.9991 73.384 15.6313 72.6423 14.8959ZM73.6297 11.4026H77.0372C76.963 11.0255 76.7729 10.7096 76.4669 10.4551C76.1702 10.1911 75.804 10.0591 75.3682 10.0591C74.9324 10.0591 74.5616 10.1863 74.2556 10.4409C73.9496 10.6955 73.741 11.0161 73.6297 11.4026ZM79.6048 17.2719V14.0898H80.3698L81.8301 8.57406H85.5852L87.0455 14.0898H87.8105V17.2719H86.0025V15.7869H81.4128V17.2719H79.6048ZM82.3169 14.0898H85.0984L84.0553 10.2712H83.36L82.3169 14.0898ZM88.6397 15.7869V8.57406H90.5868V11.6855L90.5172 12.9583H90.6563L93.5074 8.57406H95.5936V15.7869H93.6465V12.6755L93.716 11.4026H93.577L90.7258 15.7869H88.6397ZM96.4327 10.2712V8.57406H103.108V10.2712H100.744V15.7869H98.7971V10.2712H96.4327ZM103.946 12.8169V11.1198H109.162V12.8169H103.946ZM110.696 15.7869V8.57406H112.643V14.0898H115.286V8.57406H117.233V14.0898H118.207V17.2719H116.329V15.7869H110.696ZM119.799 14.8959C119.066 14.1511 118.7 13.2459 118.7 12.1805C118.7 11.1151 119.066 10.2146 119.799 9.4792C120.54 8.73434 121.449 8.36191 122.525 8.36191C123.619 8.36191 124.518 8.72963 125.223 9.46506C125.927 10.2005 126.28 11.1056 126.28 12.1805V12.6048H120.717C120.791 13.0762 120.999 13.4769 121.342 13.8069C121.685 14.1369 122.08 14.3019 122.525 14.3019C123.016 14.3019 123.438 14.1605 123.79 13.8776C123.929 13.7551 124.041 13.6136 124.124 13.4533H126.21C126.053 13.9342 125.821 14.3585 125.515 14.7262C124.773 15.5748 123.776 15.9991 122.525 15.9991C121.449 15.9991 120.54 15.6313 119.799 14.8959ZM120.786 11.4026H124.194C124.119 11.0255 123.929 10.7096 123.623 10.4551C123.327 10.1911 122.96 10.0591 122.525 10.0591C122.089 10.0591 121.718 10.1863 121.412 10.4409C121.106 10.6955 120.897 11.0161 120.786 11.4026ZM127.457 15.7869V8.57406H129.404V11.2612H132.394V8.57406H134.341V15.7869H132.394V12.9583H129.404V15.7869H127.457ZM135.182 10.2712V8.57406H141.858V10.2712H139.494V15.7869H137.546V10.2712H135.182ZM142.696 18.4741V8.57406H144.643V9.49334H144.712C144.861 9.29534 145.041 9.10677 145.255 8.92763C145.755 8.55048 146.316 8.36191 146.938 8.36191C147.865 8.36191 148.639 8.71549 149.26 9.42263C149.891 10.1203 150.206 11.0396 150.206 12.1805C150.206 13.3213 149.891 14.2453 149.26 14.9525C148.639 15.6502 147.865 15.9991 146.938 15.9991C146.316 15.9991 145.755 15.8105 145.255 15.4333C145.041 15.2542 144.861 15.0656 144.712 14.8676H144.643V18.4741H142.696ZM145.143 10.6248C144.81 10.9925 144.643 11.5111 144.643 12.1805C144.643 12.8499 144.81 13.3732 145.143 13.7503C145.477 14.1181 145.913 14.3019 146.451 14.3019C146.961 14.3019 147.378 14.1133 147.703 13.7362C148.027 13.3591 148.189 12.8405 148.189 12.1805C148.189 11.5205 148.027 11.0019 147.703 10.6248C147.378 10.2476 146.961 10.0591 146.451 10.0591C145.913 10.0591 145.477 10.2476 145.143 10.6248Z" fill="black"/>
<mask id="mask0_128_556" style="mask-type:alpha" maskUnits="userSpaceOnUse" x="0" y="0" width="24" height="33">
<path d="M22.5176 2.02041V12.2579C22.5176 13.4031 21.2013 14.0259 20.3398 13.2882L16.5957 10.082C16.3569 9.87744 16.0547 9.76531 15.7426 9.76531H15.1189C14.7676 9.76531 14.4307 9.90721 14.1823 10.1598L9.65997 14.7585C9.41154 15.0112 9.272 15.3538 9.272 15.711V16.976C9.272 17.3191 9.40075 17.6493 9.63202 17.8992L14.178 22.8109C14.4283 23.0813 14.7773 23.2347 15.1425 23.2347H15.6773C16.0286 23.2347 16.3655 23.0928 16.6139 22.8402L19.4805 19.9251C19.729 19.6725 20.0659 19.5306 20.4171 19.5306H20.8619C21.2788 19.5306 21.6714 19.7302 21.9216 20.0694L22.2527 20.5184C22.4246 20.7515 22.5176 21.0351 22.5176 21.3266V30.9796C22.5176 31.7235 21.9246 32.3265 21.1931 32.3265H8.49607C8.1448 32.3265 7.8079 32.1846 7.55948 31.932L1.0503 25.3129C0.801903 25.0603 0.662354 24.7177 0.662354 24.3605V23.8153C0.662354 23.4447 0.812499 23.0905 1.07744 22.8361L6.2078 17.9088C6.47273 17.6544 6.62288 17.3002 6.62288 16.9296V16.3844C6.62288 16.0272 6.48333 15.6846 6.23493 15.432L1.0503 10.1598C0.801903 9.90721 0.662354 9.56461 0.662354 9.20741V8.00398C0.662354 7.62448 0.819784 7.26263 1.09592 7.00738L7.56855 1.02375C7.81234 0.798358 8.13003 0.67347 8.45952 0.67347H21.1931C21.9246 0.67347 22.5176 1.27651 22.5176 2.02041Z" fill="#2273EC" stroke="#2273EC"/>
</mask>
<g mask="url(#mask0_128_556)">
<path d="M9.37062 -7.19171L8.60962 -6.54237L29.6776 18.9897L30.4386 18.3403L9.37062 -7.19171Z" fill="white"/>
<path d="M4.73464 -5.1713L3.97363 -4.52196L25.0416 21.0101L25.8026 20.3607L4.73464 -5.1713Z" fill="white"/>
<path d="M3.41017 0.889922L2.64917 1.53927L23.7172 27.0713L24.4782 26.422L3.41017 0.889922Z" fill="white"/>
<path d="M-1.22581 2.91033L-1.98682 3.55968L23.2946 34.1979L24.0556 33.5485L-1.22581 2.91033Z" fill="white"/>
<path d="M2.74782 14.3593L1.98682 15.0087L23.0548 40.5407L23.8158 39.8914L2.74782 14.3593Z" fill="white"/>
<path d="M-1.88817 16.3797L-2.64917 17.0291L18.4188 42.5611L19.1798 41.9118L-1.88817 16.3797Z" fill="white"/>
</g>
</svg>
