<svg width="17" height="17" viewBox="0 0 17 17" fill="none" xmlns="http://www.w3.org/2000/svg">
<path fill-rule="evenodd" clip-rule="evenodd" d="M11.5438 11.0063C11.6011 12.304 10.5538 13.4014 9.20471 13.4565C9.10535 13.4607 4.26104 13.451 4.26104 13.451C2.9185 13.5529 1.74351 12.5881 1.63761 11.2953C1.62963 11.199 1.63181 6.00114 1.63181 6.00114C1.57234 4.70203 2.61822 3.60187 3.96802 3.54463C4.06883 3.53974 8.90661 3.54882 8.90661 3.54882C10.2557 3.4483 11.4343 4.42001 11.5387 5.71912C11.546 5.81266 11.5438 11.0063 11.5438 11.0063Z" stroke="#091B3C" stroke-opacity="0.7" stroke-linecap="round" stroke-linejoin="round"/>
<path d="M11.5459 7.06906L13.8784 5.1601C14.4564 4.68694 15.3234 5.09919 15.3227 5.84506L15.3142 11.0506C15.3135 11.7965 14.4458 12.2052 13.8692 11.732L11.5459 9.82306" stroke="#091B3C" stroke-opacity="0.7" stroke-linecap="round" stroke-linejoin="round"/>
</svg>
