<svg width="21" height="13" viewBox="0 0 21 13" fill="none" xmlns="http://www.w3.org/2000/svg">
<path d="M11.4378 13C4.56927 13 0.525629 8.52797 0.0432304 1.02234C0.00728016 0.462992 0.460718 0 1.02122 0H2.61361C3.15818 0 3.59942 0.437549 3.63793 0.980752C3.93913 5.23013 5.60952 7.53077 7.28418 8.51654C7.84417 8.84617 8.46027 8.37649 8.46027 7.72668V1C8.46027 0.447715 8.90799 0 9.46027 0H10.8445C11.3968 0 11.8445 0.447715 11.8445 1V4.02771C11.8445 4.622 12.368 5.08451 12.9133 4.84822C14.4293 4.1913 15.8583 2.56376 16.5863 0.714495C16.7499 0.298846 17.1367 0 17.5834 0H19.0196C19.6418 0 20.1153 0.564993 19.9202 1.15588C19.3451 2.89793 18.2545 4.32717 17.1551 5.3319C16.5566 5.87893 16.6067 6.99405 17.2533 7.48333C18.462 8.39794 19.7539 9.79561 20.5716 11.7577C20.8259 12.3677 20.3465 13 19.6855 13H18.0021C17.5685 13 17.1904 12.7175 17.0183 12.3195C16.2394 10.5178 14.7938 9.1027 12.9271 8.56203C12.3593 8.39759 11.8445 8.86682 11.8445 9.45793V12.5932C11.8445 12.8179 11.6624 13 11.4378 13Z" fill="#091B3C" fill-opacity="0.8"/>
</svg>
